<?xml version="1.0" encoding="UTF-8"?>
<svg width="66" height="75">
  <defs id="SvgjsDefs1086" />
  <g xmlns:name="monogram_container_inversefill" id="SvgjsG1087" transform="translate(0.1, 0.5186850428581238) scale(1.3254500293253844)" rel="inversefill" name="monogram_container" feature="monogram_container" fill="#0a9efc">
    <title xmlns="http://www.w3.org/2000/svg">assets</title>
    <path xmlns="http://www.w3.org/2000/svg" d="M473.11,303l-21.41-12.36a3.39,3.39,0,0,1-1.69-2.94V263a3.39,3.39,0,0,1,1.69-2.94l21.41-12.36a3.39,3.39,0,0,1,3.39,0l21.41,12.36A3.39,3.39,0,0,1,499.6,263v24.73a3.39,3.39,0,0,1-1.69,2.94L476.5,303A3.39,3.39,0,0,1,473.11,303Z" transform="translate(-450 -247.24)" />
  </g>
  <g xmlns:name="monogram_mainfill" id="SvgjsG1089" name="monogram" feature="monogram" rel="mainfill" fill="#ffffff" transform="translate(0.4530724, -11.958333333333329) scale(3.8263888888888884)">
    <path d="M14.4 12.219999999999999 l-5.84 4.8 l-5.84 -4.8 l0 7.78 l-0.72 0 l0 -9.32 l6.56 5.4 l6.56 -5.4 l0 9.32 l-0.72 0 l0 -7.78 z M8.56 11.42 l-5.9 -4.88 l0.46 -0.54 l5.44 4.46 l5.44 -4.46 l0.46 0.54 z" />
  </g>
</svg>
