<svg width="257" height="130"><defs id="SvgjsDefs1086"></defs><g id="SvgjsG1087" transform="translate(95.99415254592896, 0.5186850428581238) scale(1.3254500293253844)" rel="inversefill" name="monogram_container" feature="monogram_container" xmlns:name="monogram_container_inversefill" fill="#0a9efc">   <title xmlns="http://www.w3.org/2000/svg">assets</title>   <path xmlns="http://www.w3.org/2000/svg" d="M473.11,303l-21.41-12.36a3.39,3.39,0,0,1-1.69-2.94V263a3.39,3.39,0,0,1,1.69-2.94l21.41-12.36a3.39,3.39,0,0,1,3.39,0l21.41,12.36A3.39,3.39,0,0,1,499.6,263v24.73a3.39,3.39,0,0,1-1.69,2.94L476.5,303A3.39,3.39,0,0,1,473.11,303Z" transform="translate(-450 -247.24)"></path> </g><g id="main_text" rel="mainfill" name="main_text" feature="main_text" xmlns:name="mainText_mainfill" groupname="main_text" fill="#0a9efc" transform="translate(-3.930150863826701, 63.07413669351595) scale(2.3393737612534604)"><path d="M4.54 9.84 l4.5 10.72 l0.08 0 l4.46 -10.72 l2.86 0 l0 14.16 l-1.92 0 l0 -11.64 l-0.04 0 l-4.78 11.64 l-1.28 0 l-4.78 -11.64 l-0.04 0 l0 11.64 l-1.92 0 l0 -14.16 l2.86 0 z M20.52 9.8 q0.54 0 0.93 0.39 t0.39 0.93 q0 0.56 -0.4 0.94 t-0.92 0.38 q-0.56 0 -0.94 -0.38 t-0.38 -0.94 t0.4 -0.94 t0.92 -0.38 z M21.42 14.52 l0 9.48 l-1.8 0 l0 -9.48 l1.8 0 z M26.78 11.86 l0 2.66 l2.58 0 l0 1.56 l-2.58 0 l0 4.56 q0 0.92 0.26 1.42 t1.1 0.5 q0.8 0 1.28 -0.28 l0 1.64 q-0.52 0.28 -1.64 0.32 q-1.08 0 -1.67 -0.33 t-0.86 -0.92 t-0.27 -1.85 l0 -5.06 l-2.08 0 l0 -1.56 l2.08 0 l0 -2.66 l1.8 0 z M32.72 9.8 q0.54 0 0.93 0.39 t0.39 0.93 q0 0.56 -0.4 0.94 t-0.92 0.38 q-0.56 0 -0.94 -0.38 t-0.38 -0.94 t0.4 -0.94 t0.92 -0.38 z M33.62 14.52 l0 9.48 l-1.8 0 l0 -9.48 l1.8 0 z M40.839999999999996 14.28 q1.02 0 1.9 0.42 t1.4 1.18 l0.04 0 l0 -1.36 l1.8 0 l0 9.48 q-0.02 2.1 -1.44 3.44 t-3.74 1.36 q-2.94 0 -4.64 -1.7 l1.22 -1.52 q1.42 1.54 3.4 1.54 q1.7 0 2.55 -0.87 t0.85 -2.37 l0 -1.44 l-0.06 0 q-0.48 0.84 -1.39 1.26 t-1.89 0.42 q-2.08 0 -3.44 -1.39 t-1.38 -3.43 q0.02 -2.28 1.37 -3.64 t3.45 -1.38 z M37.94 19.259999999999998 q0 1.42 0.83 2.28 t2.29 0.9 q1.44 0 2.27 -0.86 t0.85 -2.32 q0 -1.48 -0.85 -2.38 t-2.29 -0.92 q-1.42 0 -2.26 0.94 t-0.84 2.36 z M52.5 14.28 q1.8 0 2.85 0.82 t1.11 2.28 l0 5.08 q0 0.72 0.08 1.54 l-1.6 0 q-0.06 -0.64 -0.06 -1.44 l-0.04 0 q-0.62 0.92 -1.43 1.3 t-1.89 0.38 q-1.46 0 -2.37 -0.78 t-0.91 -2.06 q0 -1.62 1.36 -2.45 t3.84 -0.83 l1.34 0 l0 -0.34 q0 -0.96 -0.63 -1.51 t-1.65 -0.55 q-0.76 0 -1.33 0.23 t-1.35 0.85 l-1.08 -1.12 q1.54 -1.36 3.76 -1.4 z M50.04 21.259999999999998 q0 1.54 2.04 1.54 q1.22 0 1.95 -0.73 t0.75 -2.11 l0 -0.52 l-1.02 0 q-1.76 0 -2.74 0.45 t-0.98 1.37 z M61.58 11.86 l0 2.66 l2.58 0 l0 1.56 l-2.58 0 l0 4.56 q0 0.92 0.26 1.42 t1.1 0.5 q0.8 0 1.28 -0.28 l0 1.64 q-0.52 0.28 -1.64 0.32 q-1.08 0 -1.67 -0.33 t-0.86 -0.92 t-0.27 -1.85 l0 -5.06 l-2.08 0 l0 -1.56 l2.08 0 l0 -2.66 l1.8 0 z M70.82000000000001 14.28 q2.18 0 3.39 1.37 t1.23 3.77 l0 0.5 l-7.6 0 q0 1.16 0.93 1.95 t2.27 0.81 q1.48 0 2.6 -1.42 l1.36 1.04 q-1.52 1.94 -4.2 1.94 q-2.18 0 -3.51 -1.39 t-1.37 -3.59 q0 -2.12 1.37 -3.53 t3.53 -1.45 z M73.52000000000001 18.48 q-0.04 -1.34 -0.76 -2.05 t-1.98 -0.71 q-0.84 0 -1.51 0.41 t-1.05 1.06 t-0.38 1.29 l5.68 0 z M78.48 14.52 l2.14 7.08 l0.04 0 l2.26 -7.08 l1.9 0 l2.4 7.08 l0.04 0 l2.04 -7.08 l1.9 0 l-3.06 9.48 l-1.82 0 l-2.5 -7.08 l-0.04 0 l-2.26 7.08 l-1.94 0 l-3.12 -9.48 l2.02 0 z M96.58000000000001 14.28 q1.8 0 2.85 0.82 t1.11 2.28 l0 5.08 q0 0.72 0.08 1.54 l-1.6 0 q-0.06 -0.64 -0.06 -1.44 l-0.04 0 q-0.62 0.92 -1.43 1.3 t-1.89 0.38 q-1.46 0 -2.37 -0.78 t-0.91 -2.06 q0 -1.62 1.36 -2.45 t3.84 -0.83 l1.34 0 l0 -0.34 q0 -0.96 -0.63 -1.51 t-1.65 -0.55 q-0.76 0 -1.33 0.23 t-1.35 0.85 l-1.08 -1.12 q1.54 -1.36 3.76 -1.4 z M94.12000000000002 21.259999999999998 q0 1.54 2.04 1.54 q1.22 0 1.95 -0.73 t0.75 -2.11 l0 -0.52 l-1.02 0 q-1.76 0 -2.74 0.45 t-0.98 1.37 z M104.10000000000001 14.52 l2.82 7.4 l0.04 0 l2.68 -7.4 l1.94 0 l-4.48 11.48 q-0.62 1.66 -1.36 2.23 t-1.9 0.57 q-0.98 0 -1.6 -0.26 l0.22 -1.62 q0.56 0.2 1.08 0.2 q0.84 0 1.21 -0.41 t0.65 -1.17 l0.56 -1.48 l-3.94 -9.54 l2.08 0 z"></path></g><g id="SvgjsG1089" name="monogram" feature="monogram" rel="mainfill" xmlns:name="monogram_mainfill" fill="#ffffff" transform="translate(96.34722495906883, -11.958333333333329) scale(3.8263888888888884)"><path d="M14.4 12.219999999999999 l-5.84 4.8 l-5.84 -4.8 l0 7.78 l-0.72 0 l0 -9.32 l6.56 5.4 l6.56 -5.4 l0 9.32 l-0.72 0 l0 -7.78 z M8.56 11.42 l-5.9 -4.88 l0.46 -0.54 l5.44 4.46 l5.44 -4.46 l0.46 0.54 z"></path></g></svg>